<?xml version="1.0" encoding="UTF-8"?>
<svg id="Layer_1" xmlns="http://www.w3.org/2000/svg" xmlns:xlink="http://www.w3.org/1999/xlink" viewBox="0 0 20 20">
  <defs>
    <style>
      .cls-1 {
        fill: url(#linear-gradient-5);
      }

      .cls-2 {
        fill: url(#linear-gradient-4);
      }

      .cls-3 {
        fill: url(#linear-gradient-3);
      }

      .cls-4 {
        fill: url(#linear-gradient-2);
      }

      .cls-5 {
        fill: url(#linear-gradient);
      }

      .cls-6 {
        fill: #68b2cd;
      }
    </style>
    <linearGradient id="linear-gradient" x1="10" y1="176.14" x2="10" y2="164.07" gradientTransform="translate(0 180.14) scale(1 -1)" gradientUnits="userSpaceOnUse">
      <stop offset="0" stop-color="#023452"/>
      <stop offset="1" stop-color="#037eab"/>
    </linearGradient>
    <linearGradient id="linear-gradient-2" x1="13.68" y1="170.59" x2="13.68" y2="170.07" xlink:href="#linear-gradient"/>
    <linearGradient id="linear-gradient-3" x1="13.68" y1="171.33" x2="13.68" y2="170.81" xlink:href="#linear-gradient"/>
    <linearGradient id="linear-gradient-4" x1="13.68" y1="172.07" x2="13.68" y2="171.55" xlink:href="#linear-gradient"/>
    <linearGradient id="linear-gradient-5" x1="12.69" y1="169.77" x2="12.69" y2="169.25" xlink:href="#linear-gradient"/>
  </defs>
  <path class="cls-5" d="M16,5.57h-.26v-.28c0-.42-.34-.76-.76-.76h-3.41c-.66,0-1.25.36-1.57.89-.32-.53-.9-.89-1.57-.89h-.52c0-.29-.23-.52-.52-.52h-1.04c-.29,0-.52.23-.52.52h-.8c-.42,0-.76.34-.76.76v.28h-.26c-.43,0-.78.35-.78.78v8.35c0,.43.35.78.78.78h4.7c0,.29.23.52.52.52h1.57c.29,0,.52-.23.52-.52h4.7c.43,0,.78-.35.78-.78V6.35c0-.43-.35-.78-.78-.78ZM4.78,13.39h3.65c.49,0,.92.28,1.14.69-.18-.1-.39-.16-.62-.16h-4.17v-.52ZM11.57,5.04h3.41c.13,0,.24.11.24.24v7.59h-3.65c-.51,0-.97.21-1.3.55v-7.07c0-.72.59-1.3,1.3-1.3ZM15.22,13.39v.52h-4.17c-.23,0-.43.06-.62.16.22-.41.65-.69,1.14-.69h3.65ZM6.35,4.52h1.04v2.09h-1.04v-2.09ZM4.78,5.28c0-.13.11-.24.24-.24h.8v1.57c0,.29.23.52.52.52h1.04c.29,0,.52-.23.52-.52v-1.57h.52c.72,0,1.3.59,1.3,1.3v7.07c-.33-.34-.79-.55-1.3-.55h-3.65v-7.59ZM16.26,14.7c0,.14-.12.26-.26.26h-5.22v.52h-1.57v-.52h-5.22c-.14,0-.26-.12-.26-.26V6.35c0-.14.12-.26.26-.26h.26v7.83c0,.29.23.52.52.52h4.17c.43,0,.78.35.78.78h.52c0-.43.35-.78.78-.78h4.17c.29,0,.52-.23.52-.52v-7.83h.26c.14,0,.26.12.26.26v8.35Z"/>
  <path class="cls-6" d="M6.35,4.52h1.04v2.09h-1.04v-2.09Z"/>
  <path class="cls-4" d="M12.89,9.59h1.58v.41h-1.58v-.41Z"/>
  <path class="cls-3" d="M12.89,8.85h1.58v.41h-1.58v-.41Z"/>
  <path class="cls-2" d="M12.89,8.11h1.58v.41h-1.58v-.41Z"/>
  <g>
    <polygon class="cls-6" points="10.91 9.59 11.64 9.59 11.64 8.54 11.08 8.54 11.08 8.12 12.05 8.12 12.05 9.59 12.64 9.59 12.64 10 10.91 10 10.91 9.59"/>
    <path class="cls-6" d="M11.57,7.61c0-.08.02-.14.07-.2s.12-.08.2-.08.16.03.21.08.08.12.08.2-.03.15-.08.2-.12.08-.21.08-.15-.02-.2-.08-.07-.12-.07-.2Z"/>
  </g>
  <path class="cls-1" d="M10.91,10.41h3.56v.41h-3.56v-.41Z"/>
</svg>