<?xml version="1.0" encoding="UTF-8"?>
<svg id="Layer_1" xmlns="http://www.w3.org/2000/svg" xmlns:xlink="http://www.w3.org/1999/xlink" viewBox="0 0 20 20">
  <defs>
    <style>
      .cls-1 {
        fill: url(#linear-gradient-7);
      }

      .cls-2 {
        fill: url(#linear-gradient-5);
      }

      .cls-3 {
        fill: url(#linear-gradient-6);
      }

      .cls-4 {
        fill: url(#linear-gradient-4);
      }

      .cls-5 {
        fill: url(#linear-gradient-3);
      }

      .cls-6 {
        fill: url(#linear-gradient-2);
      }

      .cls-7 {
        fill: url(#linear-gradient);
      }

      .cls-8 {
        fill: #68b2cd;
      }
    </style>
    <linearGradient id="linear-gradient" x1="10" y1="352.01" x2="10" y2="340.9" gradientTransform="translate(0 356.14) scale(1 -1)" gradientUnits="userSpaceOnUse">
      <stop offset="0" stop-color="#023452"/>
      <stop offset="1" stop-color="#037eab"/>
    </linearGradient>
    <linearGradient id="linear-gradient-2" x1="7.46" x2="7.46" y2="340.9" xlink:href="#linear-gradient"/>
    <linearGradient id="linear-gradient-3" x1="10.35" y1="352.01" x2="10.35" y2="340.9" xlink:href="#linear-gradient"/>
    <linearGradient id="linear-gradient-4" x1="11.15" y1="352.01" x2="11.15" y2="340.9" xlink:href="#linear-gradient"/>
    <linearGradient id="linear-gradient-5" x1="10.35" y1="352.01" x2="10.35" y2="340.9" xlink:href="#linear-gradient"/>
    <linearGradient id="linear-gradient-6" x1="11.15" y1="352.01" x2="11.15" y2="340.9" xlink:href="#linear-gradient"/>
    <linearGradient id="linear-gradient-7" x1="10.35" y1="352.01" x2="10.35" y2="340.9" xlink:href="#linear-gradient"/>
  </defs>
  <rect class="cls-8" x="6.77" y="6.31" width="1.38" height="5.54"/>
  <path class="cls-8" d="M9.31,15.54l-.69-.23-.69.23v-2.08h1.38v2.08Z"/>
  <path class="cls-7" d="M13.23,4.69h-3.46v-.23c0-.25-.21-.46-.46-.46h-1.38c-.25,0-.46.21-.46.46v.23h-.69c-.64,0-1.15.52-1.15,1.15v8.31c0,.64.52,1.15,1.15,1.15h.69v.23c0,.18.1.34.26.41.07.03.14.05.21.05.1,0,.19-.03.28-.09l.41-.31.41.31c.14.11.33.12.48.04.16-.08.26-.24.26-.41v-.23h3.46c.64,0,1.15-.52,1.15-1.15V5.85c0-.64-.52-1.15-1.15-1.15ZM7.92,4.46h1.38v.23h-1.38v-.23ZM7.46,13.92h-.46v-.46h.46v.46ZM9.31,15.54l-.41-.31c-.16-.12-.39-.12-.55,0l-.42.31v-2.08h1.38v2.08ZM13.92,14.15c0,.38-.31.69-.69.69h-3.46v-.46h3.23c.25,0,.46-.21.46-.46v-.46c0-.26-.21-.46-.46-.46h-6c-.25,0-.46.21-.46.46v.46c0,.25.21.46.46.46h.46v.46h-.69c-.38,0-.69-.31-.69-.69V5.85c0-.38.31-.69.69-.69h6.46c.38,0,.69.31.69.69v8.31ZM9.77,13.92v-.46h3.23v.46h-3.23Z"/>
  <path class="cls-6" d="M8.15,6.08h-1.38c-.13,0-.23.1-.23.23v5.54c0,.13.1.23.23.23h1.38c.13,0,.23-.1.23-.23v-5.54c0-.13-.1-.23-.23-.23ZM7.92,11.62h-.92v-.92h.92v.92ZM7.92,10.23h-.92v-.92h.92v.92ZM7.92,8.85h-.92v-.92h.92v.92ZM7.92,7.46h-.92v-.92h.92v.92Z"/>
  <rect class="cls-5" x="8.85" y="7" width="3" height=".46"/>
  <rect class="cls-4" x="8.85" y="7.92" width="4.62" height=".46"/>
  <rect class="cls-2" x="8.85" y="8.85" width="3" height=".46"/>
  <rect class="cls-3" x="8.85" y="9.77" width="4.62" height=".46"/>
  <rect class="cls-1" x="8.85" y="10.69" width="3" height=".46"/>
</svg>