<?xml version="1.0" encoding="UTF-8"?>
<svg id="Layer_1" xmlns="http://www.w3.org/2000/svg" xmlns:xlink="http://www.w3.org/1999/xlink" viewBox="0 0 20 20">
  <defs>
    <style>
      .cls-1 {
        fill: url(#linear-gradient-2);
      }

      .cls-2 {
        fill: url(#linear-gradient);
      }
    </style>
    <linearGradient id="linear-gradient" x1="9.66" y1="171.33" x2="9.66" y2="168.05" gradientTransform="translate(0 180.14) scale(1 -1)" gradientUnits="userSpaceOnUse">
      <stop offset="0" stop-color="#023452"/>
      <stop offset="1" stop-color="#037eab"/>
    </linearGradient>
    <linearGradient id="linear-gradient-2" x1="9.66" y1="174.18" x2="9.66" y2="165.4" xlink:href="#linear-gradient"/>
  </defs>
  <path class="cls-2" d="M12.6,10.32l-2.85-1.34c-.06-.03-.12-.03-.18,0l-2.85,1.34c-.08.04-.08.14,0,.18l2.85,1.34c.06.03.12.03.18,0l2.85-1.34c.08-.04.08-.14,0-.18Z"/>
  <path class="cls-1" d="M15.25,12.39v-.12c0-.15-.08-.28-.21-.36v-2.43l.39-.18c.14-.06.23-.2.23-.35s-.09-.29-.23-.35l-5.51-2.49c-.16-.07-.35-.07-.51,0l-5.51,2.49c-.14.06-.23.2-.23.35s.09.29.23.35l1.22.55v1.37c0,.25.2.45.39.53l3.73,1.66c.13.06.27.09.41.09s.28-.03.41-.09l3.76-1.66c.2-.09.4-.29.4-.53v-1.37l.41-.19v2.24c-.12.07-.21.2-.21.36v.12c-.25.14-.41.41-.41.71v.83c0,.46.37.83.83.83s.83-.37.83-.83v-.83c0-.31-.17-.57-.41-.71ZM15.35,8.8l-.08.19s0,0,0,0l.09-.19ZM9.58,6.5c.05-.02.12-.02.17,0l5.46,2.46-5.46,2.46c-.05.02-.12.02-.17,0l-5.46-2.46,5.46-2.46ZM12.77,10.52v1.26l-1.24.55v-1.25l1.24-.56ZM7.8,11.08v1.26l-1.24-.55v-1.27l1.24.56ZM5.53,11.24v-1.19l.62.28v1.27l-.47-.21c-.09-.04-.15-.11-.15-.16ZM8.22,12.52v-1.26l1.19.54s.03.01.05.02v1.25s-.04,0-.05-.02l-1.19-.53ZM9.89,13.05s-.01,0-.02,0v-1.24s.03,0,.05-.02l1.19-.54v1.25l-1.22.54ZM13.8,11.24s-.07.12-.15.16l-.47.21v-1.27l.62-.28v1.19ZM14.84,12.69c.23,0,.41.19.41.41v.21h-.83v-.21c0-.23.19-.41.41-.41ZM14.84,14.34c-.23,0-.41-.19-.41-.41v-.21h.83v.21c0,.23-.19.41-.41.41Z"/>
</svg>