<?xml version="1.0" encoding="UTF-8"?>
<svg id="Layer_1" xmlns="http://www.w3.org/2000/svg" xmlns:xlink="http://www.w3.org/1999/xlink" viewBox="0 0 20 20">
  <defs>
    <style>
      .cls-1 {
        fill: url(#linear-gradient-7);
      }

      .cls-2 {
        fill: url(#linear-gradient-5);
      }

      .cls-3 {
        fill: url(#linear-gradient-6);
      }

      .cls-4 {
        fill: url(#linear-gradient-4);
      }

      .cls-5 {
        fill: url(#linear-gradient-3);
      }

      .cls-6 {
        fill: url(#linear-gradient-2);
      }

      .cls-7 {
        fill: url(#linear-gradient);
      }

      .cls-8 {
        fill: #68b2cd;
      }
    </style>
    <linearGradient id="linear-gradient" x1="10" y1="352.41" x2="10" y2="339.82" gradientTransform="translate(0 356.14) scale(1 -1)" gradientUnits="userSpaceOnUse">
      <stop offset="0" stop-color="#023452"/>
      <stop offset="1" stop-color="#037eab"/>
    </linearGradient>
    <linearGradient id="linear-gradient-2" x1="8.62" y1="352.41" x2="8.62" y2="339.82" xlink:href="#linear-gradient"/>
    <linearGradient id="linear-gradient-3" x1="8.5" y1="352.41" x2="8.5" y2="339.82" xlink:href="#linear-gradient"/>
    <linearGradient id="linear-gradient-4" x1="11.29" y1="352.41" x2="11.29" y2="339.82" xlink:href="#linear-gradient"/>
    <linearGradient id="linear-gradient-5" x1="11.29" y1="352.41" x2="11.29" y2="339.82" xlink:href="#linear-gradient"/>
    <linearGradient id="linear-gradient-6" x1="8.38" y1="352.41" x2="8.38" y2="339.82" xlink:href="#linear-gradient"/>
    <linearGradient id="linear-gradient-7" x1="8.27" y1="352.41" x2="8.27" y2="339.82" xlink:href="#linear-gradient"/>
  </defs>
  <path class="cls-8" d="M6.77,14.38h6.46v.23h-6.46v-.23Z"/>
  <path class="cls-8" d="M7.23,5.15h1.62v.23h-1.62v-.23Z"/>
  <path class="cls-8" d="M11.15,5.15h1.62v.23h-1.62v-.23Z"/>
  <path class="cls-7" d="M13.69,5.38h-.46v-.23c0-.25-.21-.46-.46-.46h-1.71c-.18-.41-.58-.69-1.06-.69s-.88.29-1.06.69h-1.71c-.25,0-.46.21-.46.46v.23h-.46c-.51,0-.92.41-.92.92v8.77c0,.51.41.92.92.92h7.38c.51,0,.92-.41.92-.92V6.31c0-.51-.41-.92-.92-.92ZM12.77,5.15v.23h-1.62v-.23h1.62ZM9.31,5.15c0-.38.31-.69.69-.69s.69.31.69.69v1.62s-1.38,0-1.38,0v-1.62ZM9.31,7.23h1.38c.25,0,.46-.21.46-.46h2.08v7.15h-6.46v-7.15h2.08c0,.25.21.46.46.46ZM6.77,14.38h6.46v.23h-6.46v-.23ZM7.23,5.15h1.62v.23h-1.62v-.23ZM14.15,15.08c0,.25-.21.46-.46.46h-7.38c-.25,0-.46-.21-.46-.46V6.31c0-.25.21-.46.46-.46h2.54v.46h-2.08c-.25,0-.46.21-.46.46v7.85c0,.25.21.46.46.46h6.46c.25,0,.46-.21.46-.46v-7.85c0-.25-.21-.46-.46-.46h-2.08v-.46h2.54c.25,0,.46.21.46.46v8.77Z"/>
  <path class="cls-6" d="M7.69,8.38h1.85v.46h-1.85v-.46Z"/>
  <path class="cls-5" d="M7.69,11.15h1.62v.46h-1.62v-.46Z"/>
  <path class="cls-4" d="M11.1,9.92c.12,0,.24-.04.33-.13l1.03-1.03-.33-.33-1.03,1.03-.64-.64-.33.33.64.64c.09.09.21.13.33.13Z"/>
  <path class="cls-2" d="M11.1,12.69c.12,0,.24-.04.33-.13l1.03-1.03-.33-.33-1.03,1.03-.64-.64-.33.33.64.64c.09.09.21.13.33.13Z"/>
  <path class="cls-3" d="M7.69,9.31h1.38v.46h-1.38v-.46Z"/>
  <path class="cls-1" d="M7.69,12.08h1.15v.46h-1.15v-.46Z"/>
</svg>