<?xml version="1.0" encoding="UTF-8"?>
<svg id="Layer_1" xmlns="http://www.w3.org/2000/svg" xmlns:xlink="http://www.w3.org/1999/xlink" viewBox="0 0 20 20">
  <defs>
    <style>
      .cls-1 {
        fill: url(#linear-gradient-7);
      }

      .cls-2 {
        fill: url(#linear-gradient-5);
      }

      .cls-3 {
        fill: url(#linear-gradient-6);
      }

      .cls-4 {
        fill: url(#linear-gradient-4);
      }

      .cls-5 {
        fill: url(#linear-gradient-3);
      }

      .cls-6 {
        fill: url(#linear-gradient-2);
      }

      .cls-7 {
        fill: url(#linear-gradient);
      }

      .cls-8 {
        fill: #68b2cd;
      }
    </style>
    <linearGradient id="linear-gradient" x1="9.8" y1="352.35" x2="9.8" y2="339.01" gradientTransform="translate(0 356.14) scale(1 -1)" gradientUnits="userSpaceOnUse">
      <stop offset="0" stop-color="#023452"/>
      <stop offset="1" stop-color="#037eab"/>
    </linearGradient>
    <linearGradient id="linear-gradient-2" x1="6.57" y1="352.35" x2="6.57" y2="339.01" xlink:href="#linear-gradient"/>
    <linearGradient id="linear-gradient-3" x1="7.03" y1="352.35" x2="7.03" y2="339.01" xlink:href="#linear-gradient"/>
    <linearGradient id="linear-gradient-4" x1="7.49" y1="352.35" x2="7.49" y2="339.01" xlink:href="#linear-gradient"/>
    <linearGradient id="linear-gradient-5" x1="7.49" y1="352.35" x2="7.49" y2="339.01" xlink:href="#linear-gradient"/>
    <linearGradient id="linear-gradient-6" x1="10.95" y1="352.35" x2="10.95" y2="339.01" xlink:href="#linear-gradient"/>
    <linearGradient id="linear-gradient-7" x1="12.8" y1="352.35" x2="12.8" y2="339.01" xlink:href="#linear-gradient"/>
  </defs>
  <path class="cls-8" d="M4.72,5.12h10.15v.46H4.72v-.46Z"/>
  <path class="cls-8" d="M11.65,9.28h.46v1.85h-.46v-1.85Z"/>
  <path class="cls-7" d="M15.11,4.2H4.49c-.38,0-.69.31-.69.69v.92c0,.3.19.55.46.65v5.12c0,.64.52,1.15,1.15,1.15h3.46c0,.25.21.46.46.46h.23v.72c-.53.11-.92.57-.92,1.13,0,.64.52,1.15,1.15,1.15s1.15-.52,1.15-1.15c0-.56-.4-1.02-.92-1.13v-.72h.23c.25,0,.46-.21.46-.46h3.46c.64,0,1.15-.52,1.15-1.15v-5.12c.27-.1.46-.35.46-.65v-.92c0-.38-.31-.69-.69-.69ZM10.49,15.05c0,.38-.31.69-.69.69s-.69-.31-.69-.69.31-.69.69-.69.69.31.69.69ZM14.18,12.28H5.42c-.38,0-.69-.31-.69-.69v-5.08h3.69c0,.25.21.46.46.46h1.85c.25,0,.46-.21.46-.46h3.69v5.08c0,.38-.31.69-.69.69ZM15.34,5.82c0,.13-.1.23-.23.23H4.49c-.13,0-.23-.1-.23-.23v-.92c0-.13.1-.23.23-.23h10.62c.13,0,.23.1.23.23v.92Z"/>
  <path class="cls-6" d="M5.65,10.66h1.85v.46h-1.85v-.46Z"/>
  <path class="cls-5" d="M5.65,9.74h2.77v.46h-2.77v-.46Z"/>
  <path class="cls-4" d="M5.65,8.82h3.69v.46h-3.69v-.46Z"/>
  <path class="cls-2" d="M5.65,7.89h3.69v.46h-3.69v-.46Z"/>
  <path class="cls-3" d="M10.72,10.2h.46v.92h-.46v-.92Z"/>
  <path class="cls-1" d="M12.57,8.35h.46v2.77h-.46v-2.77Z"/>
  <path class="cls-8" d="M13.49,9.74h.46v1.38h-.46v-1.38Z"/>
</svg>