<?xml version="1.0" encoding="UTF-8"?>
<svg id="Layer_1" xmlns="http://www.w3.org/2000/svg" xmlns:xlink="http://www.w3.org/1999/xlink" viewBox="0 0 20 20">
  <defs>
    <style>
      .cls-1 {
        fill: url(#linear-gradient);
      }

      .cls-2 {
        fill: #68b2cd;
      }
    </style>
    <linearGradient id="linear-gradient" x1="10" y1="264.17" x2="10" y2="252.53" gradientTransform="translate(0 268.14) scale(1 -1)" gradientUnits="userSpaceOnUse">
      <stop offset="0" stop-color="#023452"/>
      <stop offset="1" stop-color="#037eab"/>
    </linearGradient>
  </defs>
  <circle class="cls-2" cx="14.62" cy="5.38" r=".69"/>
  <circle class="cls-2" cx="5.38" cy="14.62" r=".69"/>
  <circle class="cls-2" cx="5.38" cy="5.38" r=".69"/>
  <circle class="cls-2" cx="14.62" cy="14.62" r=".69"/>
  <path class="cls-1" d="M13.46,10.46c.13,0,.23-.1.23-.23h.49c.1.4.46.69.89.69.51,0,.92-.41.92-.92s-.41-.92-.92-.92c-.43,0-.79.3-.89.69h-.49c0-.13-.1-.23-.23-.23h-.03c-.08-.61-.32-1.17-.68-1.64l.03-.03c.09-.09.09-.23,0-.32l1.38-1.38c.14.08.3.13.47.13.25,0,.48-.1.65-.27.17-.17.27-.41.27-.65s-.1-.48-.27-.65c-.35-.35-.96-.35-1.31,0-.17.17-.27.41-.27.65,0,.17.05.33.13.47l-1.38,1.38h0c-.09-.09-.24-.09-.33,0l-.03.03c-.47-.35-1.02-.59-1.63-.68v-.03c0-.13-.1-.23-.23-.23v-.49c.4-.1.69-.46.69-.89,0-.51-.41-.92-.92-.92s-.92.41-.92.92c0,.43.3.79.69.89v.49c-.13,0-.23.1-.23.23v.03c-.61.08-1.17.32-1.64.68l-.03-.03c-.09-.09-.23-.09-.32,0l-1.38-1.38c.08-.14.13-.3.13-.47,0-.25-.1-.48-.27-.65-.35-.35-.96-.35-1.31,0-.17.17-.27.41-.27.65s.1.48.27.65c.17.17.41.27.65.27.17,0,.33-.05.47-.13l1.38,1.38h0c-.09.09-.09.24,0,.33l.03.03c-.35.47-.59,1.02-.68,1.63h-.03c-.13,0-.23.1-.23.23h-.49c-.1-.4-.46-.69-.89-.69-.51,0-.92.41-.92.92s.41.92.92.92c.43,0,.79-.3.89-.69h.49c0,.13.1.23.23.23h.03c.08.61.32,1.17.68,1.64l-.03.03c-.09.09-.09.23,0,.32l-1.38,1.38c-.35-.2-.82-.15-1.12.14-.17.17-.27.41-.27.65s.1.48.27.65c.17.17.41.27.65.27s.48-.1.65-.27c.17-.17.27-.41.27-.65,0-.17-.05-.33-.13-.47l1.38-1.38h0s.1.07.16.07.12-.02.16-.07l.03-.03c.47.35,1.02.59,1.63.68v.03c0,.13.1.23.23.23v.49c-.4.1-.69.46-.69.89,0,.51.41.92.92.92s.92-.41.92-.92c0-.43-.3-.79-.69-.89v-.49c.13,0,.23-.1.23-.23v-.03c.61-.08,1.17-.32,1.64-.68l.03.03s.1.07.16.07.11-.02.16-.06l1.38,1.38c-.08.14-.13.3-.13.47,0,.25.1.48.27.65.17.17.41.27.65.27s.48-.1.65-.27c.17-.17.27-.41.27-.65s-.1-.48-.27-.65c-.29-.29-.77-.34-1.12-.14l-1.38-1.38h0c.09-.09.09-.24,0-.33l-.03-.03c.35-.47.59-1.02.68-1.63h.03ZM15.08,9.54c.25,0,.46.21.46.46s-.21.46-.46.46-.46-.21-.46-.46.21-.46.46-.46ZM14.29,5.06c.09-.09.2-.14.33-.14s.24.05.33.14.14.2.14.33-.05.24-.14.33c-.17.17-.48.17-.65,0-.09-.09-.14-.2-.14-.33s.05-.24.14-.33ZM5.71,5.71c-.17.17-.48.17-.65,0-.09-.09-.14-.2-.14-.33s.05-.24.14-.33.2-.14.33-.14.24.05.33.14.14.2.14.33-.05.24-.14.33ZM4.92,10.46c-.25,0-.46-.21-.46-.46s.21-.46.46-.46.46.21.46.46-.21.46-.46.46ZM5.71,14.94c-.17.17-.48.17-.65,0-.09-.09-.14-.2-.14-.33s.05-.24.14-.33.2-.14.33-.14.24.05.33.14.14.2.14.33-.05.24-.14.33ZM14.29,14.29c.09-.09.2-.14.33-.14s.24.05.33.14.14.2.14.33-.05.24-.14.33c-.17.17-.48.17-.65,0-.09-.09-.14-.2-.14-.33s.05-.24.14-.33ZM9.54,4.92c0-.25.21-.46.46-.46s.46.21.46.46-.21.46-.46.46-.46-.21-.46-.46ZM10.46,15.08c0,.25-.21.46-.46.46s-.46-.21-.46-.46.21-.46.46-.46.46.21.46.46ZM10,13c-.83,0-1.59-.34-2.13-.89.13-.32.34-.61.6-.84.33.49.89.81,1.52.81s1.19-.32,1.52-.81c.26.23.47.52.6.84-.54.55-1.3.89-2.13.89ZM8.62,10.23v-.69c0-.76.62-1.38,1.38-1.38s1.38.62,1.38,1.38v.69c0,.76-.62,1.38-1.38,1.38s-1.38-.62-1.38-1.38ZM12.45,11.72c-.18-.34-.42-.63-.72-.87.07-.19.11-.4.11-.62v-.69c0-1.02-.83-1.85-1.85-1.85s-1.85.83-1.85,1.85v.69c0,.22.04.42.11.62-.3.24-.54.54-.72.87-.34-.49-.55-1.08-.55-1.72,0-1.65,1.35-3,3-3s3,1.35,3,3c0,.64-.2,1.23-.55,1.72Z"/>
</svg>