<?xml version="1.0" encoding="UTF-8"?>
<svg id="Layer_1" xmlns="http://www.w3.org/2000/svg" xmlns:xlink="http://www.w3.org/1999/xlink" viewBox="0 0 20 20">
  <defs>
    <style>
      .cls-1 {
        fill: url(#linear-gradient-2);
      }

      .cls-2 {
        fill: url(#linear-gradient);
      }

      .cls-3 {
        fill: #68b2cd;
      }
    </style>
    <linearGradient id="linear-gradient" x1="9.38" y1="175.99" x2="9.38" y2="164.36" gradientTransform="translate(18.77 180.14) rotate(-180)" gradientUnits="userSpaceOnUse">
      <stop offset="0" stop-color="#023452"/>
      <stop offset="1" stop-color="#037eab"/>
    </linearGradient>
    <linearGradient id="linear-gradient-2" x1="13.59" y1="14.11" x2="13.83" y2="5.48" gradientTransform="translate(.3 -.29) rotate(1.22)" xlink:href="#linear-gradient"/>
  </defs>
  <path class="cls-2" d="M13.31,4h-5.82c-.18,0-.34.07-.48.21l-2.03,2.03c-.14.14-.21.3-.21.48v8.59c0,.39.3.69.69.69h7.85c.39,0,.69-.3.69-.69v-4.92c-.14.1-.29.18-.46.24v3.75c0,.14-.09.24-.23.24h-7.85c-.14,0-.23-.1-.23-.24v-7.61h1.62c.39,0,.69-.3.69-.69v-1.62h5.77c.14,0,.23.09.23.23v1.4c.16.06.32.14.46.24v-1.64c0-.39-.3-.69-.69-.69ZM5.46,15.08h7.85c.09,0,.16-.03.23-.05v.28c0,.14-.09.23-.23.23h-7.85c-.14,0-.23-.09-.23-.23v-.28c.07.02.14.05.23.05ZM7.08,6.08c0,.14-.1.23-.23.23h-1.3l1.53-1.53v1.3Z"/>
  <path class="cls-1" d="M17.41,12.62l-1.39-1.64c-.11-.13-.32-.15-.46-.04l-.41.31-.65-.83c.55-.49.91-1.2.92-2,.03-1.06-.55-1.99-1.42-2.47-.15-.09-.3-.16-.46-.21-.26-.09-.53-.13-.82-.14-1.52-.03-2.79,1.18-2.82,2.7-.03,1.53,1.18,2.79,2.7,2.82.33,0,.65-.04.94-.14.16-.06.32-.13.46-.22.08-.04.16-.09.24-.14l.65.82-.39.3c-.07.05-.12.13-.12.22,0,.09.01.17.07.24l1.39,1.63c.16.19.4.3.64.3.19.01.38-.05.54-.17l.26-.2c.18-.14.29-.33.32-.55.02-.21-.05-.43-.19-.59ZM14,10.39c-.14.1-.29.18-.46.24-.28.12-.6.18-.93.17-1.34-.03-2.41-1.15-2.38-2.49.02-1.34,1.14-2.41,2.48-2.38.29,0,.57.06.83.16.16.06.32.14.46.24.68.44,1.12,1.21,1.1,2.08-.02.83-.45,1.56-1.1,1.98ZM14.7,12l1.06-.81h.02l.2.25-1.07.81-.21-.25ZM15.13,12.5l1.07-.81.23.27-1.07.81-.23-.27ZM17.09,13.5l-.27.2c-.22.17-.55.14-.73-.08l-.52-.6,1.07-.81.52.62c.09.1.13.22.11.34-.01.13-.08.25-.18.33Z"/>
  <rect class="cls-3" x="6.2" y="8.6" width="2.8" height=".6"/>
  <rect class="cls-3" x="6.2" y="9.7" width="2.8" height=".6"/>
  <rect class="cls-3" x="6.2" y="10.8" width="2.8" height=".6"/>
  <rect class="cls-3" x="6.2" y="11.9" width="6" height=".6"/>
  <rect class="cls-3" x="6.2" y="13" width="6" height=".6"/>
</svg>