<?xml version="1.0" encoding="UTF-8"?>
<svg id="Layer_1" xmlns="http://www.w3.org/2000/svg" xmlns:xlink="http://www.w3.org/1999/xlink" viewBox="0 0 20 20">
  <defs>
    <style>
      .cls-1 {
        fill: url(#linear-gradient);
      }
    </style>
    <linearGradient id="linear-gradient" x1="10" y1="263.95" x2="10" y2="253.48" gradientTransform="translate(0 268.14) scale(1 -1)" gradientUnits="userSpaceOnUse">
      <stop offset="0" stop-color="#023452"/>
      <stop offset="1" stop-color="#037eab"/>
    </linearGradient>
  </defs>
  <path class="cls-1" d="M15.7,14.48l-1.48-1.48.69-.69c.18-.18.25-.43.18-.68s-.26-.43-.5-.49l-1.16-.29c.27-.6.42-1.27.42-1.98,0-2.69-2.19-4.88-4.88-4.88s-4.88,2.19-4.88,4.88,2.19,4.88,4.88,4.88c.58,0,1.13-.11,1.64-.29l.33,1.32c.06.25.24.44.49.5.24.07.5,0,.68-.18l.8-.8,1.48,1.48c.13.13.31.2.49.2s.36-.07.49-.2l.33-.33c.27-.27.27-.71,0-.99ZM8.97,13.29c-2.43,0-4.41-1.98-4.41-4.41s1.98-4.41,4.41-4.41,4.41,1.98,4.41,4.41c0,.67-.15,1.3-.41,1.86l-.46-.11c.26-.53.41-1.12.41-1.75,0-2.18-1.77-3.95-3.95-3.95s-3.95,1.77-3.95,3.95,1.77,3.95,3.95,3.95c.5,0,.98-.1,1.42-.27l.11.46c-.48.18-.99.28-1.53.28ZM11.29,8.65c-.04-1.24-.4-2.3-.94-2.97,1.17.5,2.01,1.64,2.1,2.97h-1.16ZM12.45,9.11c-.03.5-.18.98-.4,1.4l-.9-.22c.08-.37.13-.76.15-1.18h1.16ZM10.02,11.07l.12.49c-.26.41-.59.69-.94.78v-3.22h1.62c-.01.38-.07.75-.14,1.09-.18,0-.35.07-.48.2-.17.17-.24.42-.18.66ZM9.2,8.65v-3.22c.86.21,1.56,1.58,1.62,3.22h-1.62ZM6.66,9.11c.04,1.24.4,2.3.94,2.97-1.17-.5-2.01-1.64-2.1-2.97h1.16ZM5.5,8.65c.09-1.33.93-2.47,2.1-2.97-.55.67-.9,1.74-.94,2.97h-1.16ZM7.12,9.11h1.62v3.22c-.86-.21-1.56-1.58-1.62-3.22ZM7.12,8.65c.06-1.64.76-3.01,1.62-3.22v3.22h-1.62ZM15.38,15.14l-.33.33c-.09.09-.24.09-.33,0l-1.81-1.81-1.13,1.13c-.09.09-.19.07-.23.06-.04-.01-.13-.05-.16-.17l-.92-3.72c-.03-.12.03-.19.06-.22s.11-.09.22-.06l3.72.92c.12.03.16.12.17.16s.03.14-.06.23l-1.02,1.02,1.81,1.81c.09.09.09.24,0,.33Z"/>
</svg>