<?xml version="1.0" encoding="UTF-8"?>
<svg id="Layer_1" xmlns="http://www.w3.org/2000/svg" xmlns:xlink="http://www.w3.org/1999/xlink" viewBox="0 0 20 20">
  <defs>
    <style>
      .cls-1 {
        fill: url(#linear-gradient-3);
      }

      .cls-2 {
        fill: url(#linear-gradient-2);
      }

      .cls-3 {
        fill: url(#linear-gradient);
      }

      .cls-4 {
        fill: #68b2cd;
      }
    </style>
    <linearGradient id="linear-gradient" x1="10" y1="351.09" x2="10" y2="341.1" gradientTransform="translate(0 356.14) scale(1 -1)" gradientUnits="userSpaceOnUse">
      <stop offset="0" stop-color="#023452"/>
      <stop offset="1" stop-color="#037eab"/>
    </linearGradient>
    <linearGradient id="linear-gradient-2" y1="351.09" y2="341.1" xlink:href="#linear-gradient"/>
    <linearGradient id="linear-gradient-3" y1="351.09" y2="341.1" xlink:href="#linear-gradient"/>
  </defs>
  <path class="cls-4" d="M13.4,11.6h-6.6l2.98-3.08c.18-.16.46-.16.64,0l2.98,3.08Z"/>
  <rect class="cls-3" x="7" y="14.6" width="6" height=".4"/>
  <rect class="cls-2" x="5.4" y="13.4" width="9.2" height=".4"/>
  <path class="cls-1" d="M15.28,12.2l-4.46-4.88c-.16-.18-.38-.28-.62-.32v-.6h.9c.38,0,.7-.32.7-.7s-.32-.7-.7-.7h-.7c-.34,0-.6.26-.6.6v1.44c-.16.06-.32.14-.44.26l-4.64,4.9h-.72v.4h12v-.4h-.72ZM10.4,5.4h.7c.16,0,.3.14.3.3s-.14.3-.3.3h-.9v-.4c0-.12.08-.2.2-.2ZM5.26,12.2l4.38-4.62c.12-.12.26-.18.44-.18h0c.16,0,.32.08.44.2l4.22,4.6H5.26Z"/>
</svg>